<?xml version="1.0" encoding="UTF-8"?>
<!DOCTYPE svg PUBLIC "-//W3C//DTD SVG 1.1//EN" "http://www.w3.org/Graphics/SVG/1.1/DTD/svg11.dtd">
<svg xmlns="http://www.w3.org/2000/svg" version="1.1" width="500px" height="500px" style="shape-rendering:geometricPrecision; text-rendering:geometricPrecision; image-rendering:optimizeQuality; fill-rule:evenodd; clip-rule:evenodd" xmlns:xlink="http://www.w3.org/1999/xlink">
<g><path style="opacity:1" fill="#f9f8f7" d="M -0.5,-0.5 C 166.167,-0.5 332.833,-0.5 499.5,-0.5C 499.5,166.167 499.5,332.833 499.5,499.5C 332.833,499.5 166.167,499.5 -0.5,499.5C -0.5,332.833 -0.5,166.167 -0.5,-0.5 Z"/></g>
<g><path style="opacity:1" fill="#f7f4f1" d="M 207.5,143.5 C 208.871,147.588 208.538,151.588 206.5,155.5C 205.06,154.048 203.394,153.048 201.5,152.5C 200.524,151.185 199.524,149.852 198.5,148.5C 199.488,145.55 200.321,142.55 201,139.5C 203.069,141.085 205.236,142.419 207.5,143.5 Z"/></g>
<g><path style="opacity:1" fill="#b68e5b" d="M 207.5,143.5 C 205.236,142.419 203.069,141.085 201,139.5C 200.321,142.55 199.488,145.55 198.5,148.5C 199.524,149.852 200.524,151.185 201.5,152.5C 198.714,152.044 197.381,150.377 197.5,147.5C 197.907,143.716 198.741,140.049 200,136.5C 202.86,138.502 205.36,140.835 207.5,143.5 Z"/></g>
<g><path style="opacity:1" fill="#b99260" d="M 323.5,201.5 C 324.226,198.821 325.059,196.154 326,193.5C 329.064,191.784 332.231,191.45 335.5,192.5C 334.215,195.021 333.548,197.687 333.5,200.5C 330.119,200.46 326.786,200.793 323.5,201.5 Z"/></g>
<g><path style="opacity:1" fill="#f7f4f1" d="M 327.5,193.5 C 329.527,193.338 331.527,193.505 333.5,194C 332.661,198.778 329.995,200.278 325.5,198.5C 326.174,196.805 326.841,195.138 327.5,193.5 Z"/></g>
<g><path style="opacity:1" fill="#b58c57" d="M 284.5,219.5 C 284.066,222.166 285.066,223.333 287.5,223C 290.031,219.642 292.698,216.476 295.5,213.5C 300.048,203.788 307.382,196.955 317.5,193C 320.333,190.167 323.167,187.333 326,184.5C 325.777,177.307 329.277,174.307 336.5,175.5C 336.322,178.216 335.822,180.883 335,183.5C 333.301,184.406 331.467,184.739 329.5,184.5C 325.961,186.523 322.795,189.189 320,192.5C 316.362,198.303 312.529,203.97 308.5,209.5C 301.5,214.667 294.5,219.833 287.5,225C 288.211,226.255 289.044,227.421 290,228.5C 301.06,219.263 312.227,210.263 323.5,201.5C 313.149,211.183 302.483,220.517 291.5,229.5C 291.869,231.39 292.869,232.224 294.5,232C 302.365,226.636 310.365,221.47 318.5,216.5C 320.086,214.33 321.42,211.996 322.5,209.5C 325.446,208.345 328.446,208.179 331.5,209C 330.73,211.567 329.73,214.067 328.5,216.5C 325.215,217.324 321.882,217.824 318.5,218C 310.289,223.266 302.289,228.766 294.5,234.5C 294.833,235.167 295.167,235.833 295.5,236.5C 299.122,237.659 302.789,237.825 306.5,237C 311.087,234.87 315.753,233.037 320.5,231.5C 316.054,234.226 311.387,236.726 306.5,239C 302.015,241.624 300.015,245.458 300.5,250.5C 310.785,248.179 321.118,246.013 331.5,244C 333.35,241.982 335.35,240.149 337.5,238.5C 340.284,239.392 342.95,240.558 345.5,242C 343.317,244.35 340.984,246.517 338.5,248.5C 335.96,247.598 333.46,246.598 331,245.5C 321.194,247.694 311.361,249.694 301.5,251.5C 301.237,254.734 302.737,256.068 306,255.5C 318.495,254.292 330.995,253.126 343.5,252C 346.323,250.517 349.157,249.017 352,247.5C 354.977,247.988 357.477,249.322 359.5,251.5C 357.42,253.589 355.087,255.256 352.5,256.5C 350.308,256.243 348.641,255.243 347.5,253.5C 332.49,254.751 317.49,256.085 302.5,257.5C 302.5,258.833 302.5,260.167 302.5,261.5C 310.999,260.222 319.499,258.889 328,257.5C 336.13,259.074 344.297,260.408 352.5,261.5C 354.5,261.333 356.5,261.167 358.5,261C 360.443,259.445 362.61,258.278 365,257.5C 367.752,258.586 370.252,260.086 372.5,262C 370.468,264.013 368.134,265.513 365.5,266.5C 363.308,266.243 361.641,265.243 360.5,263.5C 355.886,262.45 351.22,262.283 346.5,263C 332.166,267.245 317.833,267.079 303.5,262.5C 302.571,263.689 302.238,265.022 302.5,266.5C 301.5,266.5 300.5,266.5 299.5,266.5C 298.869,233.366 282.035,215.033 249,211.5C 216.501,215.496 200.001,233.829 199.5,266.5C 198.5,266.5 197.5,266.5 196.5,266.5C 196.5,265.167 196.5,263.833 196.5,262.5C 188.07,264.21 179.57,265.544 171,266.5C 162.815,265.245 154.648,263.912 146.5,262.5C 144.5,262.667 142.5,262.833 140.5,263C 135.865,267.767 131.532,267.434 127.5,262C 131.532,256.566 135.865,256.233 140.5,261C 142.5,261.167 144.5,261.333 146.5,261.5C 154.483,260.17 162.483,258.836 170.5,257.5C 179.202,258.762 187.868,260.095 196.5,261.5C 196.5,260.167 196.5,258.833 196.5,257.5C 183.189,256.003 169.856,254.67 156.5,253.5C 153.116,253.773 149.95,254.773 147,256.5C 145.699,256.361 144.866,255.695 144.5,254.5C 147.66,255.27 150.326,254.27 152.5,251.5C 167.416,253.545 182.416,254.878 197.5,255.5C 197.5,254.167 197.5,252.833 197.5,251.5C 187.904,250.06 178.404,248.06 169,245.5C 165.592,246.897 162.092,247.397 158.5,247C 157.748,246.329 157.414,245.496 157.5,244.5C 155.314,244.489 154.481,243.489 155,241.5C 157.443,240.407 159.943,239.407 162.5,238.5C 164.65,240.149 166.65,241.982 168.5,244C 178.472,246.361 188.472,248.528 198.5,250.5C 198.985,245.458 196.985,241.624 192.5,239C 187.613,236.726 182.946,234.226 178.5,231.5C 183.032,232.763 187.365,234.597 191.5,237C 195.541,237.827 199.541,237.66 203.5,236.5C 203.931,235.707 204.265,234.873 204.5,234C 196.796,227.971 188.796,222.304 180.5,217C 177.77,216.272 175.103,216.438 172.5,217.5C 170.707,214.749 169.041,211.916 167.5,209C 170.5,208.333 173.5,208.333 176.5,209C 178.257,211.846 180.257,214.512 182.5,217C 189.672,221.419 196.672,226.085 203.5,231C 205.319,231.783 206.652,231.283 207.5,229.5C 197.301,219.801 186.634,210.635 175.5,202C 172.776,201.73 170.109,201.23 167.5,200.5C 166.308,198.258 165.308,195.925 164.5,193.5C 167.428,192.516 170.428,192.183 173.5,192.5C 173.781,197.229 175.781,201.063 179.5,204C 189.124,211.289 198.458,218.955 207.5,227C 209.319,227.783 210.652,227.283 211.5,225.5C 209.467,223.493 207.467,221.493 205.5,219.5C 206.525,219.103 206.692,218.437 206,217.5C 202.193,212.059 198.027,206.892 193.5,202C 189.973,199.409 186.306,197.409 182.5,196C 185.29,199.746 187.957,203.579 190.5,207.5C 193.239,209.851 195.905,212.184 198.5,214.5C 195.475,213.235 192.642,211.568 190,209.5C 185.019,201.042 179.186,193.209 172.5,186C 169.57,185.394 166.737,184.56 164,183.5C 163.713,181.109 163.213,178.776 162.5,176.5C 165.446,175.679 168.446,175.679 171.5,176.5C 172.022,179.568 172.855,182.568 174,185.5C 180.026,191.76 186.86,196.927 194.5,201C 200.549,208.048 206.216,215.381 211.5,223C 213.319,223.783 214.652,223.283 215.5,221.5C 213.722,219.736 212.389,217.736 211.5,215.5C 213.463,216.96 215.296,218.627 217,220.5C 218.885,219.687 219.551,218.353 219,216.5C 214.333,209.167 209.667,201.833 205,194.5C 202.586,192.188 199.753,190.521 196.5,189.5C 194.51,181.304 196.843,179.304 203.5,183.5C 204.321,186.447 204.821,189.447 205,192.5C 210.5,200.833 216,209.167 221.5,217.5C 222.5,216.833 223.5,216.167 224.5,215.5C 225.66,211.541 225.827,207.541 225,203.5C 219,188.167 213,172.833 207,157.5C 204.672,156.336 202.838,154.67 201.5,152.5C 203.394,153.048 205.06,154.048 206.5,155.5C 208.538,151.588 208.871,147.588 207.5,143.5C 209.484,143.484 210.484,144.484 210.5,146.5C 209.274,150.448 208.774,154.448 209,158.5C 214.667,173.167 220.333,187.833 226,202.5C 228.346,206.179 231.346,209.179 235,211.5C 236.395,211.22 237.562,210.553 238.5,209.5C 237.652,207.591 237.318,205.591 237.5,203.5C 238.738,205.214 239.405,207.214 239.5,209.5C 240.833,209.5 242.167,209.5 243.5,209.5C 243.24,203.828 242.907,198.161 242.5,192.5C 242.5,191.833 242.833,191.5 243.5,191.5C 243.67,196.859 244.17,202.192 245,207.5C 245.71,208.973 246.876,209.64 248.5,209.5C 247.665,200.654 246.665,191.821 245.5,183C 246.88,174.887 247.88,166.72 248.5,158.5C 249.218,153.207 247.885,148.54 244.5,144.5C 245.612,142.581 246.946,140.914 248.5,139.5C 248.517,137.972 249.184,137.472 250.5,138C 252.032,140.034 253.365,142.201 254.5,144.5C 253.533,146.63 252.366,148.63 251,150.5C 250.603,157.523 250.603,164.523 251,171.5C 250.667,170.5 250.333,169.5 250,168.5C 245.969,179.088 245.969,189.754 250,200.5C 252.129,191.226 252.795,181.893 252,172.5C 253.276,175.707 254.109,179.041 254.5,182.5C 252.646,191.434 251.313,200.434 250.5,209.5C 251.833,209.5 253.167,209.5 254.5,209.5C 255.167,201.5 255.833,193.5 256.5,185.5C 257.167,185.5 257.5,185.833 257.5,186.5C 257.189,193.885 256.522,201.219 255.5,208.5C 256.723,209.614 258.056,209.781 259.5,209C 261.529,199.991 263.863,191.157 266.5,182.5C 265.285,191.409 263.618,200.242 261.5,209C 262.858,211.673 264.858,212.173 267.5,210.5C 269.811,207.337 271.978,204.003 274,200.5C 280.07,185.697 285.57,170.697 290.5,155.5C 290.047,152.111 289.38,148.777 288.5,145.5C 291.828,142.342 295.328,139.342 299,136.5C 300.78,140.96 301.447,145.627 301,150.5C 298,152.833 295,155.167 292,157.5C 286.196,173.245 280.196,188.912 274,204.5C 273.175,208.211 273.341,211.878 274.5,215.5C 275.82,217.27 277.32,217.603 279,216.5C 284,208.5 289,200.5 294,192.5C 294.333,189.5 294.667,186.5 295,183.5C 297.587,181.804 300.421,180.804 303.5,180.5C 303.665,183.518 303.498,186.518 303,189.5C 300.333,190.833 297.667,192.167 295,193.5C 289.958,201.751 284.792,209.918 279.5,218C 280.775,220.324 282.442,220.824 284.5,219.5 Z"/></g>
<g><path style="opacity:1" fill="#f6f2ee" d="M 295.5,213.5 C 298.968,209.859 302.302,206.026 305.5,202C 309.027,199.409 312.694,197.409 316.5,196C 313.623,200.255 310.623,204.422 307.5,208.5C 303.141,212.026 298.641,215.359 294,218.5C 294.134,216.811 294.634,215.144 295.5,213.5 Z"/></g>
<g><path style="opacity:1" fill="#f5f1ec" d="M 205.5,219.5 C 203.704,217.1 201.37,215.433 198.5,214.5C 195.905,212.184 193.239,209.851 190.5,207.5C 187.957,203.579 185.29,199.746 182.5,196C 186.306,197.409 189.973,199.409 193.5,202C 198.027,206.892 202.193,212.059 206,217.5C 206.692,218.437 206.525,219.103 205.5,219.5 Z"/></g>
<g><path style="opacity:1" fill="#b68d59" d="M 234.5,189.5 C 236.735,193.787 237.735,198.454 237.5,203.5C 236.778,203.082 236.278,202.416 236,201.5C 235.358,197.509 234.858,193.509 234.5,189.5 Z"/></g>
<g><path style="opacity:1" fill="#f5f2ed" d="M 166.5,193.5 C 171.294,192.627 173.627,194.627 173.5,199.5C 171.5,199.5 169.5,199.5 167.5,199.5C 167.167,197.5 166.833,195.5 166.5,193.5 Z"/></g>
<g><path style="opacity:1" fill="#b58c57" d="M 197.5,198.5 C 194.067,195.17 190.734,191.67 187.5,188C 180.63,187.106 178.13,183.272 180,176.5C 182.718,177.347 185.384,178.347 188,179.5C 188.346,182.576 189.012,185.576 190,188.5C 192.761,191.714 195.261,195.047 197.5,198.5 Z"/></g>
<g><path style="opacity:1" fill="#b1874f" d="M 315.5,186.5 C 314.833,186.5 314.5,186.167 314.5,185.5C 315.583,185.461 316.583,185.127 317.5,184.5C 318.466,182.604 318.799,180.604 318.5,178.5C 316.5,178.833 314.5,179.167 312.5,179.5C 312.5,180.5 312.5,181.5 312.5,182.5C 311.235,184.357 311.568,186.024 313.5,187.5C 309.967,190.178 306.634,193.178 303.5,196.5C 305.423,193.397 307.59,190.397 310,187.5C 308.585,179.749 311.752,176.416 319.5,177.5C 319.664,180.187 319.497,182.854 319,185.5C 317.989,186.337 316.822,186.67 315.5,186.5 Z"/></g>
<g><path style="opacity:1" fill="#d5bea2" d="M 312.5,182.5 C 312.285,184.179 312.952,185.179 314.5,185.5C 314.5,186.167 314.833,186.5 315.5,186.5C 315.158,187.338 314.492,187.672 313.5,187.5C 311.568,186.024 311.235,184.357 312.5,182.5 Z"/></g>
<g><path style="opacity:1" fill="#c19f73" d="M 258.5,167.5 C 258.263,168.791 258.596,169.791 259.5,170.5C 259.473,176.051 258.806,181.384 257.5,186.5C 257.5,185.833 257.167,185.5 256.5,185.5C 256.918,179.331 257.585,173.331 258.5,167.5 Z"/></g>
<g><path style="opacity:1" fill="#f4efe9" d="M 299.5,182.5 C 300.5,182.5 301.5,182.5 302.5,182.5C 303.657,187.075 301.99,189.742 297.5,190.5C 294.413,186.819 295.08,184.152 299.5,182.5 Z"/></g>
<g><path style="opacity:1" fill="#f7f4f0" d="M 197.5,182.5 C 202.335,182.966 204.335,185.633 203.5,190.5C 198.138,190.454 196.138,187.787 197.5,182.5 Z"/></g>
<g><path style="opacity:1" fill="#f6f2ee" d="M 181.5,178.5 C 187.023,178.556 188.856,181.222 187,186.5C 182.558,185.716 180.724,183.05 181.5,178.5 Z"/></g>
<g><path style="opacity:1" fill="#f6f3ef" d="M 314.5,185.5 C 312.952,185.179 312.285,184.179 312.5,182.5C 312.5,181.5 312.5,180.5 312.5,179.5C 314.5,179.167 316.5,178.833 318.5,178.5C 318.799,180.604 318.466,182.604 317.5,184.5C 316.583,185.127 315.583,185.461 314.5,185.5 Z"/></g>
<g><path style="opacity:1" fill="#bb9565" d="M 243.5,191.5 C 242.833,191.5 242.5,191.833 242.5,192.5C 241.285,182.985 240.118,173.319 239,163.5C 237.257,161.679 235.757,159.679 234.5,157.5C 234.855,156.478 235.522,155.811 236.5,155.5C 236.738,153.355 237.738,151.688 239.5,150.5C 241.555,152.555 243.221,154.888 244.5,157.5C 242.087,160.367 241.087,163.701 241.5,167.5C 242.116,175.513 242.783,183.513 243.5,191.5 Z"/></g>
<g><path style="opacity:1" fill="#f3eee8" d="M 329.5,184.5 C 328.503,184.53 327.836,184.03 327.5,183C 328.233,181.234 328.567,179.401 328.5,177.5C 330.467,177.739 332.301,177.406 334,176.5C 335.652,181.219 334.152,183.885 329.5,184.5 Z"/></g>
<g><path style="opacity:1" fill="#f5f2ee" d="M 164.5,178.5 C 168.261,176.886 170.594,178.22 171.5,182.5C 171.167,183.167 170.833,183.833 170.5,184.5C 168.929,183.691 167.262,183.357 165.5,183.5C 165.784,181.585 165.451,179.919 164.5,178.5 Z"/></g>
<g><path style="opacity:1" fill="#bc9666" d="M 234.5,189.5 C 232.915,186.1 231.748,182.433 231,178.5C 225.713,174.314 225.38,169.647 230,164.5C 232.621,166.449 234.454,168.949 235.5,172C 234.25,174.166 233.584,176.499 233.5,179C 234.163,182.473 234.496,185.973 234.5,189.5 Z"/></g>
<g><path style="opacity:1" fill="#b38a54" d="M 266.5,182.5 C 266.732,178.196 265.732,174.196 263.5,170.5C 265.53,168.393 267.697,166.393 270,164.5C 271.739,166.71 272.906,169.21 273.5,172C 270.504,175.144 268.17,178.644 266.5,182.5 Z"/></g>
<g><path style="opacity:1" fill="#f5f1ec" d="M 229.5,167.5 C 233.146,168.462 234.313,170.795 233,174.5C 232.692,175.308 232.192,175.975 231.5,176.5C 228.463,174.02 227.797,171.02 229.5,167.5 Z"/></g>
<g><path style="opacity:1" fill="#f6f3f0" d="M 269.5,166.5 C 272.564,170.27 272.064,173.603 268,176.5C 266.787,174.87 265.954,173.036 265.5,171C 266.604,169.285 267.938,167.785 269.5,166.5 Z"/></g>
<g><path style="opacity:1" fill="#b18750" d="M 263.5,156.5 C 264.097,156.735 264.43,157.235 264.5,158C 263.015,160.156 261.515,162.323 260,164.5C 259.505,166.473 259.338,168.473 259.5,170.5C 258.596,169.791 258.263,168.791 258.5,167.5C 258.595,164.308 257.929,161.308 256.5,158.5C 259.69,162.42 262.024,161.754 263.5,156.5 Z"/></g>
<g><path style="opacity:1" fill="#f4f0eb" d="M 263.5,156.5 C 262.024,161.754 259.69,162.42 256.5,158.5C 257.898,151.971 260.231,151.304 263.5,156.5 Z"/></g>
<g><path style="opacity:1" fill="#b38a54" d="M 263.5,156.5 C 260.231,151.304 257.898,151.971 256.5,158.5C 255.561,155.036 256.895,152.369 260.5,150.5C 262.038,152.243 263.038,154.243 263.5,156.5 Z"/></g>
<g><path style="opacity:1" fill="#f5f0eb" d="M 236.5,155.5 C 237.79,154.942 238.623,153.942 239,152.5C 243.237,155.448 243.571,158.781 240,162.5C 237.762,160.691 236.595,158.358 236.5,155.5 Z"/></g>
<g><path style="opacity:1" fill="#f4f0eb" d="M 248.5,139.5 C 253.118,142.368 253.451,145.701 249.5,149.5C 248.248,147.999 247.248,146.332 246.5,144.5C 247.456,142.925 248.123,141.258 248.5,139.5 Z"/></g>
<g><path style="opacity:1" fill="#f7f5f2" d="M 297.5,139.5 C 299.263,142.553 300.097,145.886 300,149.5C 297.494,151.863 294.661,153.53 291.5,154.5C 291.212,151.134 291.046,147.8 291,144.5C 293.352,142.97 295.519,141.303 297.5,139.5 Z"/></g>
<g><path style="opacity:1" fill="#b58d58" d="M 303.5,196.5 C 297.88,204.728 291.547,212.395 284.5,219.5C 290.12,211.272 296.453,203.605 303.5,196.5 Z"/></g>
<g><path style="opacity:1" fill="#b58e5a" d="M 197.5,198.5 C 202.915,203.579 207.582,209.246 211.5,215.5C 206.085,210.421 201.418,204.754 197.5,198.5 Z"/></g>
<g><path style="opacity:1" fill="#f2ece5" d="M 267.5,210.5 C 269.129,209.375 270.629,208.041 272,206.5C 272.818,209.227 272.652,211.894 271.5,214.5C 269.192,214.035 267.858,212.701 267.5,210.5 Z"/></g>
<g><path style="opacity:1" fill="#f1ebe4" d="M 226.5,206.5 C 228.479,207.812 230.145,209.479 231.5,211.5C 230.564,212.974 229.23,213.974 227.5,214.5C 226.52,211.914 226.187,209.247 226.5,206.5 Z"/></g>
<g><path style="opacity:1" fill="#f8f6f4" d="M 170.5,210.5 C 174.455,209.863 177.122,211.363 178.5,215C 173.906,216.651 171.24,215.151 170.5,210.5 Z"/></g>
<g><path style="opacity:1" fill="#f2ede6" d="M 323.5,209.5 C 329.645,208.612 330.978,210.612 327.5,215.5C 325.604,216.466 323.604,216.799 321.5,216.5C 321.878,214.079 322.545,211.746 323.5,209.5 Z"/></g>
<g><path style="opacity:1" fill="#b68e5b" d="M 178.5,231.5 C 167.965,227.568 157.632,223.068 147.5,218C 142.799,217.607 138.132,217.607 133.5,218C 130.578,214.908 128.245,211.408 126.5,207.5C 130.695,205.767 135.028,205.267 139.5,206C 142.08,209.158 144.413,212.492 146.5,216C 157.38,220.941 168.047,226.108 178.5,231.5 Z"/></g>
<g><path style="opacity:1" fill="#f6f3ef" d="M 128.5,207.5 C 132.182,207.335 135.848,207.501 139.5,208C 141.167,210.333 142.833,212.667 144.5,215C 135.971,218.961 130.638,216.461 128.5,207.5 Z"/></g>
<g><path style="opacity:1" fill="#b38a55" d="M 198.5,214.5 C 201.37,215.433 203.704,217.1 205.5,219.5C 202.63,218.567 200.296,216.9 198.5,214.5 Z"/></g>
<g><path style="opacity:1" fill="#b68e5b" d="M 320.5,231.5 C 331.799,225.85 343.132,220.184 354.5,214.5C 355.765,211.475 357.432,208.642 359.5,206C 363.819,205.924 368.152,206.091 372.5,206.5C 371.307,210.549 369.307,214.216 366.5,217.5C 361.544,217.928 356.544,218.095 351.5,218C 341.368,223.068 331.035,227.568 320.5,231.5 Z"/></g>
<g><path style="opacity:1" fill="#f6f3ef" d="M 354.5,214.5 C 356.624,212.941 358.291,210.941 359.5,208.5C 370.375,205.909 372.375,208.409 365.5,216C 363.667,216.167 361.833,216.333 360,216.5C 357.705,216.453 355.871,215.787 354.5,214.5 Z"/></g>
<g><path style="opacity:1" fill="#f4f0eb" d="M 194.5,239.5 C 196.607,238.532 198.941,238.198 201.5,238.5C 201.617,240.484 200.95,242.15 199.5,243.5C 197.814,242.143 196.148,240.81 194.5,239.5 Z"/></g>
<g><path style="opacity:1" fill="#f5f1ed" d="M 297.5,238.5 C 305.983,237.445 306.65,239.112 299.5,243.5C 298.05,242.15 297.383,240.484 297.5,238.5 Z"/></g>
<g><path style="opacity:1" fill="#f3ede7" d="M 157.5,244.5 C 157.5,243.5 157.5,242.5 157.5,241.5C 159.262,241.643 160.929,241.309 162.5,240.5C 168.006,243.347 167.672,245.347 161.5,246.5C 160.378,245.37 159.044,244.703 157.5,244.5 Z"/></g>
<g><path style="opacity:1" fill="#f6f3ef" d="M 336.5,240.5 C 343.864,241.045 344.364,243.045 338,246.5C 336.365,246.122 334.865,245.456 333.5,244.5C 334.524,243.148 335.524,241.815 336.5,240.5 Z"/></g>
<g><path style="opacity:1" fill="#f3eee8" d="M 152.5,251.5 C 150.326,254.27 147.66,255.27 144.5,254.5C 143.859,253.518 143.193,252.518 142.5,251.5C 144.001,250.248 145.668,249.248 147.5,248.5C 148.94,249.952 150.606,250.952 152.5,251.5 Z"/></g>
<g><path style="opacity:1" fill="#f5f1ed" d="M 347.5,253.5 C 349.605,248.265 352.605,247.599 356.5,251.5C 355.5,253.167 354.167,254.5 352.5,255.5C 350.925,254.544 349.258,253.877 347.5,253.5 Z"/></g>
<g><path style="opacity:1" fill="#b38a55" d="M 152.5,251.5 C 150.606,250.952 148.94,249.952 147.5,248.5C 145.668,249.248 144.001,250.248 142.5,251.5C 143.193,252.518 143.859,253.518 144.5,254.5C 139.128,251.988 139.461,249.821 145.5,248C 148.813,247.136 151.146,248.302 152.5,251.5 Z"/></g>
<g><path style="opacity:1" fill="#f5f0ec" d="M 133.5,258.5 C 135.595,259.412 137.595,260.579 139.5,262C 137.833,263.167 136.167,264.333 134.5,265.5C 132.833,264.333 131.167,263.167 129.5,262C 131.093,261.051 132.426,259.885 133.5,258.5 Z"/></g>
<g><path style="opacity:1" fill="#f6f3ef" d="M 164.5,259.5 C 172.625,259.152 180.625,259.985 188.5,262C 182.126,262.951 175.792,264.118 169.5,265.5C 164.515,264.27 159.515,263.103 154.5,262C 158.038,261.465 161.372,260.632 164.5,259.5 Z"/></g>
<g><path style="opacity:1" fill="#f7f4f0" d="M 321.5,259.5 C 328.973,259.139 336.306,259.972 343.5,262C 338.683,263.246 333.849,264.413 329,265.5C 322.534,264.172 316.034,263.006 309.5,262C 313.699,261.472 317.699,260.639 321.5,259.5 Z"/></g>
<g><path style="opacity:1" fill="#f2ece6" d="M 360.5,263.5 C 360.389,262.883 360.056,262.383 359.5,262C 361.333,260.833 363.167,259.667 365,258.5C 366.833,259.667 368.667,260.833 370.5,262C 368.833,263.167 367.167,264.333 365.5,265.5C 363.925,264.544 362.258,263.877 360.5,263.5 Z"/></g>
<g><path style="opacity:1" fill="#ad8045" d="M 138.5,290.5 C 143.862,290.472 149.195,290.806 154.5,291.5C 154.785,293.288 154.452,294.955 153.5,296.5C 137.99,289.508 130.823,294.508 132,311.5C 134.183,317.694 138.517,320.694 145,320.5C 148.652,320.355 152.152,319.855 155.5,319C 148.992,324.168 141.992,324.834 134.5,321C 127.271,314.285 125.771,306.451 130,297.5C 132.441,294.546 135.275,292.213 138.5,290.5 Z"/></g>
<g><path style="opacity:1" fill="#a97b3d" d="M 159.5,291.5 C 163.311,290.355 167.311,290.188 171.5,291C 170.069,291.465 168.903,292.299 168,293.5C 167.501,297.152 167.335,300.818 167.5,304.5C 173.5,304.5 179.5,304.5 185.5,304.5C 185.665,300.818 185.499,297.152 185,293.5C 184.228,292.151 183.061,291.318 181.5,291C 185.5,290.333 189.5,290.333 193.5,291C 192.234,291.309 191.067,291.809 190,292.5C 189.333,302.167 189.333,311.833 190,321.5C 191.067,322.191 192.234,322.691 193.5,323C 189.5,323.667 185.5,323.667 181.5,323C 183.061,322.682 184.228,321.849 185,320.5C 185.499,315.845 185.666,311.179 185.5,306.5C 179.5,306.5 173.5,306.5 167.5,306.5C 167.334,311.179 167.501,315.845 168,320.5C 168.903,321.701 170.069,322.535 171.5,323C 167.5,323.667 163.5,323.667 159.5,323C 161.329,322.727 162.829,321.893 164,320.5C 164.667,311.5 164.667,302.5 164,293.5C 162.89,291.963 161.39,291.297 159.5,291.5 Z"/></g>
<g><path style="opacity:1" fill="#a97a3d" d="M 232.5,291.5 C 237.65,290.349 242.984,290.183 248.5,291C 255.463,293.33 257.296,297.83 254,304.5C 252.075,306.213 249.908,307.547 247.5,308.5C 251.461,314.966 256.794,319.8 263.5,323C 260.833,323.667 258.167,323.667 255.5,323C 250.79,318.892 246.79,314.225 243.5,309C 242.207,308.51 240.873,308.343 239.5,308.5C 239.334,312.514 239.501,316.514 240,320.5C 241.171,321.893 242.671,322.727 244.5,323C 240.5,323.667 236.5,323.667 232.5,323C 233.931,322.535 235.097,321.701 236,320.5C 236.667,311.5 236.667,302.5 236,293.5C 235.184,292.177 234.017,291.511 232.5,291.5 Z"/></g>
<g><path style="opacity:1" fill="#a77738" d="M 264.5,291.5 C 268.311,290.355 272.311,290.188 276.5,291C 274.671,291.273 273.171,292.107 272,293.5C 271.333,302.5 271.333,311.5 272,320.5C 273.171,321.893 274.671,322.727 276.5,323C 272.5,323.667 268.5,323.667 264.5,323C 265.931,322.535 267.097,321.701 268,320.5C 268.667,311.5 268.667,302.5 268,293.5C 267.184,292.177 266.017,291.511 264.5,291.5 Z"/></g>
<g><path style="opacity:1" fill="#ae8249" d="M 317.5,290.5 C 326.833,290.5 336.167,290.5 345.5,290.5C 345.662,292.527 345.495,294.527 345,296.5C 341.759,293.81 337.925,292.81 333.5,293.5C 333.334,302.506 333.5,311.506 334,320.5C 335.098,321.967 336.598,322.801 338.5,323C 333.833,323.667 329.167,323.667 324.5,323C 326.101,322.727 327.601,322.227 329,321.5C 329.5,312.173 329.666,302.839 329.5,293.5C 325.075,292.81 321.241,293.81 318,296.5C 317.505,294.527 317.338,292.527 317.5,290.5 Z"/></g>
<g><path style="opacity:1" fill="#aa7c40" d="M 212.5,290.5 C 213.496,290.414 214.329,290.748 215,291.5C 218.274,301.322 221.941,310.989 226,320.5C 227.171,321.893 228.671,322.727 230.5,323C 226.167,323.667 221.833,323.667 217.5,323C 219.573,322.882 220.907,321.882 221.5,320C 220.53,316.756 219.363,313.59 218,310.5C 213.934,309.536 209.767,309.203 205.5,309.5C 204.811,313.069 203.811,316.569 202.5,320C 203.093,321.882 204.427,322.882 206.5,323C 202.5,323.667 198.5,323.667 194.5,323C 196.329,322.727 197.829,321.893 199,320.5C 203.257,310.325 207.757,300.325 212.5,290.5 Z"/></g>
<g><path style="opacity:1" fill="#ac7f43" d="M 292.5,290.5 C 303.267,289.125 310.434,293.458 314,303.5C 314.336,318.822 306.836,325.322 291.5,323C 282.875,318.424 279.709,311.258 282,301.5C 284.357,296.645 287.857,292.979 292.5,290.5 Z"/></g>
<g><path style="opacity:1" fill="#ac7e43" d="M 355.5,290.5 C 358.85,290.335 362.183,290.502 365.5,291C 369.46,291.562 370.293,293.395 368,296.5C 363.62,291.657 358.954,291.323 354,295.5C 353.104,298.025 353.604,300.192 355.5,302C 359.793,303.931 364.126,305.764 368.5,307.5C 371.356,310.624 372.189,314.291 371,318.5C 365.366,323.727 358.866,324.893 351.5,322C 349.396,320.164 349.062,317.998 350.5,315.5C 355.029,322.122 360.529,323.122 367,318.5C 367.667,316.167 367.667,313.833 367,311.5C 363.016,309.282 358.85,307.449 354.5,306C 347.768,300.463 348.101,295.296 355.5,290.5 Z"/></g>
<g><path style="opacity:1" fill="#f7f4f1" d="M 247.5,293.5 C 252.078,294.843 253.578,297.843 252,302.5C 248.754,306.309 244.921,307.309 240.5,305.5C 240.5,301.5 240.5,297.5 240.5,293.5C 242.833,293.5 245.167,293.5 247.5,293.5 Z"/></g>
<g><path style="opacity:1" fill="#f8f6f4" d="M 292.5,293.5 C 308.225,293.267 313.392,300.6 308,315.5C 303.86,320.211 298.694,321.711 292.5,320C 290,318.833 288.167,317 287,314.5C 283.526,305.86 285.36,298.86 292.5,293.5 Z"/></g>
<g><path style="opacity:1" fill="#f3eee7" d="M 211.5,295.5 C 213.922,299.076 215.589,303.076 216.5,307.5C 213.5,307.5 210.5,307.5 207.5,307.5C 208.633,303.433 209.967,299.433 211.5,295.5 Z"/></g>
<g><path style="opacity:1" fill="#d5c0a4" d="M 247.5,293.5 C 245.167,293.5 242.833,293.5 240.5,293.5C 240.5,297.5 240.5,301.5 240.5,305.5C 239.515,301.366 239.182,297.032 239.5,292.5C 242.385,292.194 245.052,292.527 247.5,293.5 Z"/></g>
<g><path style="opacity:1" fill="#bd9869" d="M 262.5,342.5 C 269.745,341.963 272.578,345.296 271,352.5C 269.179,355.991 266.346,357.157 262.5,356C 258.876,353.839 257.709,350.672 259,346.5C 259.69,344.65 260.856,343.316 262.5,342.5 Z"/></g>
<g><path style="opacity:1" fill="#f6f3ef" d="M 205.5,343.5 C 209.5,347.5 209.5,351.5 205.5,355.5C 201.317,355.65 198.984,353.65 198.5,349.5C 198.984,345.35 201.317,343.35 205.5,343.5 Z"/></g>
<g><path style="opacity:1" fill="#f7f4f1" d="M 263.5,343.5 C 265.582,343.472 267.416,344.139 269,345.5C 269.667,348.167 269.667,350.833 269,353.5C 261.933,356.608 259.266,354.275 261,346.5C 261.698,345.309 262.531,344.309 263.5,343.5 Z"/></g>
<g><path style="opacity:1" fill="#b58c57" d="M 293.5,343.5 C 300.681,342.518 301.681,342.518 296.5,343.5C 296.5,345.167 296.5,346.833 296.5,348.5C 297.822,348.67 298.989,348.337 300,347.5C 300.667,348.5 300.667,349.5 300,350.5C 298.989,349.663 297.822,349.33 296.5,349.5C 296.5,351.5 296.5,353.5 296.5,355.5C 298.766,355.859 300.599,355.192 302,353.5C 302.483,354.448 302.649,355.448 302.5,356.5C 299.482,356.665 296.482,356.498 293.5,356C 294.822,351.733 294.822,347.566 293.5,343.5 Z"/></g>
<g><path style="opacity:1" fill="#b68d59" d="M 216.5,343.5 C 223.681,342.518 224.681,342.518 219.5,343.5C 219.5,345.167 219.5,346.833 219.5,348.5C 220.822,348.67 221.989,348.337 223,347.5C 223.667,348.5 223.667,349.5 223,350.5C 221.989,349.663 220.822,349.33 219.5,349.5C 219.5,351.833 219.5,354.167 219.5,356.5C 218.448,356.649 217.448,356.483 216.5,356C 217.822,351.733 217.822,347.566 216.5,343.5 Z"/></g>
<g><path style="opacity:1" fill="#b48b56" d="M 239.5,343.5 C 240.601,342.402 241.934,342.235 243.5,343C 242.594,344.699 242.261,346.533 242.5,348.5C 244.833,348.5 247.167,348.5 249.5,348.5C 249.739,346.533 249.406,344.699 248.5,343C 249.5,342.333 250.5,342.333 251.5,343C 250.167,347.333 250.167,351.667 251.5,356C 250.5,356.667 249.5,356.667 248.5,356C 249.423,353.959 249.756,351.792 249.5,349.5C 247.167,349.5 244.833,349.5 242.5,349.5C 242.244,351.792 242.577,353.959 243.5,356C 242.167,356.667 240.833,356.667 239.5,356C 240.822,351.733 240.822,347.566 239.5,343.5 Z"/></g>
<g><path style="opacity:1" fill="#ad8147" d="M 205.5,343.5 C 208.766,344.114 210.099,346.114 209.5,349.5C 210.099,352.886 208.766,354.886 205.5,355.5C 209.5,351.5 209.5,347.5 205.5,343.5 Z"/></g>
<g><path style="opacity:1" fill="#ba9564" d="M 278.5,343.5 C 281.469,341.994 284.302,342.327 287,344.5C 287.833,348.836 286,350.836 281.5,350.5C 281.5,352.5 281.5,354.5 281.5,356.5C 280.448,356.649 279.448,356.483 278.5,356C 279.822,351.733 279.822,347.566 278.5,343.5 Z"/></g>
<g><path style="opacity:1" fill="#f8f6f4" d="M 281.5,343.5 C 285.35,343.701 286.35,345.534 284.5,349C 283.552,349.483 282.552,349.649 281.5,349.5C 281.5,347.5 281.5,345.5 281.5,343.5 Z"/></g>
<g><path style="opacity:1" fill="#b68e5a" d="M 205.5,343.5 C 201.317,343.35 198.984,345.35 198.5,349.5C 198.984,353.65 201.317,355.65 205.5,355.5C 200.595,356.995 197.595,354.995 196.5,349.5C 197.595,344.005 200.595,342.005 205.5,343.5 Z"/></g>
</svg>
