<?xml version="1.0" encoding="UTF-8"?>
<!DOCTYPE svg PUBLIC "-//W3C//DTD SVG 1.1//EN" "http://www.w3.org/Graphics/SVG/1.1/DTD/svg11.dtd">
<svg xmlns="http://www.w3.org/2000/svg" version="1.1" width="500px" height="500px" style="shape-rendering:geometricPrecision; text-rendering:geometricPrecision; image-rendering:optimizeQuality; fill-rule:evenodd; clip-rule:evenodd" xmlns:xlink="http://www.w3.org/1999/xlink">
<g><path style="opacity:1" fill="#fefefe" d="M -0.5,-0.5 C 166.167,-0.5 332.833,-0.5 499.5,-0.5C 499.5,166.167 499.5,332.833 499.5,499.5C 332.833,499.5 166.167,499.5 -0.5,499.5C -0.5,332.833 -0.5,166.167 -0.5,-0.5 Z"/></g>
<g><path style="opacity:1" fill="#0b0b0b" d="M 231.5,49.5 C 313.748,45.8619 371.581,81.5286 405,156.5C 409.478,169.892 412.812,183.559 415,197.5C 415.667,273.833 415.667,350.167 415,426.5C 411.833,439 404,446.833 391.5,450C 296.5,450.667 201.5,450.667 106.5,450C 96.16,446.993 88.9933,440.493 85,430.5C 83.3423,353.224 83.009,275.89 84,198.5C 93.5352,131.643 129.369,85.1428 191.5,59C 204.673,54.5383 218.006,51.3716 231.5,49.5 Z"/></g>
<g><path style="opacity:1" fill="#fbfbfb" d="M 235.5,58.5 C 309.389,56.8441 362.223,89.1774 394,155.5C 399.385,168.707 403.052,182.374 405,196.5C 405.667,272.833 405.667,349.167 405,425.5C 403.325,431.841 399.492,436.341 393.5,439C 298.535,440.655 203.535,440.988 108.5,440C 102.481,437.913 97.9809,434.08 95,428.5C 93.3424,351.557 93.009,274.557 94,197.5C 103.553,136.291 136.72,93.4579 193.5,69C 207.348,64.3143 221.348,60.8143 235.5,58.5 Z"/></g>
<g><path style="opacity:1" fill="#040404" d="M 235.5,95.5 C 285.825,92.2318 321.659,113.232 343,158.5C 357.971,203.45 348.138,241.95 313.5,274C 282.711,297.059 249.044,302.392 212.5,290C 163.502,266.515 143.002,227.681 151,173.5C 163.676,130.655 191.843,104.655 235.5,95.5 Z"/></g>
<g><path style="opacity:1" fill="#fafafa" d="M 239.5,108.5 C 279.059,106.357 308.559,122.357 328,156.5C 343.111,191.276 339.111,223.61 316,253.5C 313.318,256.35 310.484,259.016 307.5,261.5C 302.69,256.562 298.856,250.896 296,244.5C 292.727,236.347 290.06,228.013 288,219.5C 277.818,229.382 273.152,241.382 274,255.5C 274.86,262.801 276.36,269.968 278.5,277C 276.55,278.884 274.216,280.218 271.5,281C 255.336,284.73 239.336,284.23 223.5,279.5C 223.167,278.5 222.833,277.5 222.5,276.5C 226.154,265.113 227.321,253.446 226,241.5C 223.192,233.21 218.859,225.876 213,219.5C 209.505,234.336 203.505,248.003 195,260.5C 194.163,262.007 192.996,262.507 191.5,262C 165.88,236.802 157.047,206.635 165,171.5C 177.386,135.585 202.22,114.585 239.5,108.5 Z"/></g>
<g><path style="opacity:1" fill="#0f0f0f" d="M 159.5,112.5 C 161.5,112.5 163.5,112.5 165.5,112.5C 165.164,118.99 161.997,123.324 156,125.5C 154.893,125.415 153.893,125.081 153,124.5C 152.333,122.5 152.333,120.5 153,118.5C 155.063,116.266 157.229,114.266 159.5,112.5 Z"/></g>
<g><path style="opacity:1" fill="#101010" d="M 249.5,111.5 C 250.975,116.603 253.641,121.103 257.5,125C 260.73,126.308 264.064,127.308 267.5,128C 257.667,129.833 251.833,135.667 250,145.5C 248.406,136.072 242.906,130.405 233.5,128.5C 242.984,126.684 248.318,121.017 249.5,111.5 Z"/></g>
<g><path style="opacity:1" fill="#0f0f0f" d="M 333.5,112.5 C 341.926,112.429 346.093,116.429 346,124.5C 344.274,125.576 342.441,125.743 340.5,125C 336.208,121.915 333.875,117.749 333.5,112.5 Z"/></g>
<g><path style="opacity:1" fill="#686868" d="M 161.5,114.5 C 162.239,114.369 162.906,114.536 163.5,115C 161,117.5 158.5,120 156,122.5C 155.333,121.833 155.333,121.167 156,120.5C 158.04,118.63 159.873,116.63 161.5,114.5 Z"/></g>
<g><path style="opacity:1" fill="#727272" d="M 336.5,116.5 C 336.897,115.475 337.563,115.308 338.5,116C 340.954,117.74 342.454,119.907 343,122.5C 340.963,120.294 338.797,118.294 336.5,116.5 Z"/></g>
<g><path style="opacity:1" fill="#141414" d="M 145.5,136.5 C 146.492,133.221 146.659,129.888 146,126.5C 145.594,129.742 144.761,132.742 143.5,135.5C 140.6,129.888 141.933,125.222 147.5,121.5C 148.192,122.025 148.692,122.692 149,123.5C 149.667,126.833 149.667,130.167 149,133.5C 148.28,135.056 147.113,136.056 145.5,136.5 Z"/></g>
<g><path style="opacity:1" fill="#050505" d="M 220.5,137.5 C 218.556,144.25 218.056,151.25 219,158.5C 219.149,152.025 219.982,145.692 221.5,139.5C 222.636,135.229 224.802,131.563 228,128.5C 230.415,131.032 231.081,134.032 230,137.5C 226.375,145.29 225.709,153.29 228,161.5C 227.467,154.575 229.3,148.408 233.5,143C 234.744,142.544 235.577,143.044 236,144.5C 235.72,154.49 235.72,164.49 236,174.5C 241.49,187.76 243.157,201.426 241,215.5C 237.716,225.356 234.05,235.023 230,244.5C 228.025,228.698 220.191,216.865 206.5,209C 199.706,200.914 194.873,191.748 192,181.5C 188.638,176.97 185.471,172.303 182.5,167.5C 182.709,166.914 183.043,166.414 183.5,166C 185.833,165.333 188.167,165.333 190.5,166C 195.446,170.946 200.446,175.946 205.5,181C 206.167,181.667 206.833,181.667 207.5,181C 202.729,173.52 200.062,165.353 199.5,156.5C 199.856,146.321 201.356,136.321 204,126.5C 206.276,123.936 208.276,124.27 210,127.5C 210.498,132.519 210.332,137.519 209.5,142.5C 208.353,146.646 208.186,150.98 209,155.5C 209.826,152.207 210.326,148.874 210.5,145.5C 211.116,137.734 213.116,130.401 216.5,123.5C 218.868,124.369 220.368,126.035 221,128.5C 221.495,131.531 221.329,134.531 220.5,137.5 Z"/></g>
<g><path style="opacity:1" fill="#050505" d="M 288.5,136.5 C 289.675,140.042 290.341,143.709 290.5,147.5C 290.334,151.846 290.501,156.179 291,160.5C 292.551,155.046 292.718,149.712 291.5,144.5C 291.451,140.922 290.785,137.589 289.5,134.5C 289.042,130.083 290.708,126.75 294.5,124.5C 295.086,124.709 295.586,125.043 296,125.5C 299.838,137.195 301.505,149.195 301,161.5C 299.682,167.804 297.515,173.804 294.5,179.5C 295.002,180.521 295.668,180.688 296.5,180C 300.868,175.967 304.868,171.634 308.5,167C 312.104,164.865 315.437,165.032 318.5,167.5C 315.912,171.676 313.079,175.676 310,179.5C 306.87,187.759 303.203,195.759 299,203.5C 291.644,209.857 284.644,216.524 278,223.5C 273.821,229.869 271.321,236.869 270.5,244.5C 266.173,234.018 262.339,223.351 259,212.5C 257.815,199.04 259.815,186.04 265,173.5C 265.587,163.748 265.253,154.082 264,144.5C 266.072,141.846 267.739,142.18 269,145.5C 271.424,150.194 272.757,155.194 273,160.5C 275.199,152.615 274.532,144.948 271,137.5C 269.919,134.032 270.585,131.032 273,128.5C 275.347,131.194 277.18,134.194 278.5,137.5C 280.449,142.969 281.616,148.635 282,154.5C 282.868,147.175 282.035,140.175 279.5,133.5C 279.248,130.68 279.748,128.014 281,125.5C 282.11,123.963 283.61,123.297 285.5,123.5C 286.348,127.892 287.348,132.225 288.5,136.5 Z"/></g>
<g><path style="opacity:1" fill="#1e1e1e" d="M 351.5,121.5 C 356.761,125.01 358.261,129.677 356,135.5C 353.46,136.876 351.46,136.21 350,133.5C 348.994,129.198 349.494,125.198 351.5,121.5 Z"/></g>
<g><path style="opacity:1" fill="#222222" d="M 154.5,127.5 C 162.406,126.171 163.739,128.004 158.5,133C 155.584,135.343 153.25,135.01 151.5,132C 151.957,130.06 152.957,128.56 154.5,127.5 Z"/></g>
<g><path style="opacity:1" fill="#222222" d="M 337.5,127.5 C 340.249,127.274 342.916,127.607 345.5,128.5C 348.448,134.382 346.782,135.882 340.5,133C 339.167,131.667 337.833,130.333 336.5,129C 337.056,128.617 337.389,128.117 337.5,127.5 Z"/></g>
<g><path style="opacity:1" fill="#626262" d="M 145.5,136.5 C 144.508,136.672 143.842,136.338 143.5,135.5C 144.761,132.742 145.594,129.742 146,126.5C 146.659,129.888 146.492,133.221 145.5,136.5 Z"/></g>
<g><path style="opacity:1" fill="#161616" d="M 138.5,150.5 C 137.252,147.058 136.419,143.392 136,139.5C 135.501,143.486 135.334,147.486 135.5,151.5C 133.03,150.346 131.696,148.346 131.5,145.5C 131.838,141.163 133.504,137.496 136.5,134.5C 140.226,138.417 141.392,143.084 140,148.5C 139.722,149.416 139.222,150.082 138.5,150.5 Z"/></g>
<g><path style="opacity:1" fill="#141414" d="M 363.5,151.5 C 363.666,146.489 363.499,141.489 363,136.5C 362.778,141.412 361.945,146.079 360.5,150.5C 357.495,144.849 358.162,139.515 362.5,134.5C 366.571,138.315 368.071,142.982 367,148.5C 366.241,150.063 365.074,151.063 363.5,151.5 Z"/></g>
<g><path style="opacity:1" fill="#b0b0b0" d="M 279.5,133.5 C 282.035,140.175 282.868,147.175 282,154.5C 281.616,148.635 280.449,142.969 278.5,137.5C 279.434,136.432 279.768,135.099 279.5,133.5 Z"/></g>
<g><path style="opacity:1" fill="#232323" d="M 146.5,139.5 C 148.833,139.5 151.167,139.5 153.5,139.5C 152.092,145.238 148.426,147.904 142.5,147.5C 142.259,143.981 143.593,141.315 146.5,139.5 Z"/></g>
<g><path style="opacity:1" fill="#191919" d="M 356.5,145.5 C 350.231,142.806 349.898,143.473 355.5,147.5C 350.094,147.427 346.76,144.76 345.5,139.5C 348.667,139.4 351.667,140.067 354.5,141.5C 355.705,142.577 356.372,143.91 356.5,145.5 Z"/></g>
<g><path style="opacity:1" fill="#afafaf" d="M 289.5,134.5 C 290.785,137.589 291.451,140.922 291.5,144.5C 291.737,145.791 291.404,146.791 290.5,147.5C 290.341,143.709 289.675,140.042 288.5,136.5C 289.338,136.158 289.672,135.492 289.5,134.5 Z"/></g>
<g><path style="opacity:1" fill="#6d6d6d" d="M 356.5,145.5 C 356.672,146.492 356.338,147.158 355.5,147.5C 349.898,143.473 350.231,142.806 356.5,145.5 Z"/></g>
<g><path style="opacity:1" fill="#808080" d="M 209.5,142.5 C 209.263,143.791 209.596,144.791 210.5,145.5C 210.326,148.874 209.826,152.207 209,155.5C 208.186,150.98 208.353,146.646 209.5,142.5 Z"/></g>
<g><path style="opacity:1" fill="#565656" d="M 138.5,150.5 C 137.791,151.404 136.791,151.737 135.5,151.5C 135.334,147.486 135.501,143.486 136,139.5C 136.419,143.392 137.252,147.058 138.5,150.5 Z"/></g>
<g><path style="opacity:1" fill="#515151" d="M 363.5,151.5 C 362.209,151.737 361.209,151.404 360.5,150.5C 361.945,146.079 362.778,141.412 363,136.5C 363.499,141.489 363.666,146.489 363.5,151.5 Z"/></g>
<g><path style="opacity:1" fill="#101010" d="M 130.5,168.5 C 129.669,163.513 128.836,158.513 128,153.5C 127.292,158.628 127.792,163.628 129.5,168.5C 129.44,169.043 129.107,169.376 128.5,169.5C 125.048,167.333 123.381,164.167 123.5,160C 123.865,156.237 125.032,152.737 127,149.5C 131.83,153.818 133.83,159.151 133,165.5C 132.623,166.942 131.79,167.942 130.5,168.5 Z"/></g>
<g><path style="opacity:1" fill="#101010" d="M 369.5,167.5 C 371.267,163.092 371.767,158.426 371,153.5C 370.271,158.206 369.438,162.873 368.5,167.5C 368.565,167.938 368.399,168.272 368,168.5C 364.094,161.238 365.428,154.905 372,149.5C 375.033,154.106 376.033,159.106 375,164.5C 374.215,166.286 373.049,167.786 371.5,169C 370.184,169.528 369.517,169.028 369.5,167.5 Z"/></g>
<g><path style="opacity:1" fill="#1e1e1e" d="M 140.5,153.5 C 142.5,153.5 144.5,153.5 146.5,153.5C 145.683,158.488 142.849,161.822 138,163.5C 136.5,162.667 135.333,161.5 134.5,160C 136.014,157.322 138.014,155.155 140.5,153.5 Z"/></g>
<g><path style="opacity:1" fill="#949494" d="M 220.5,137.5 C 220.328,138.492 220.662,139.158 221.5,139.5C 219.982,145.692 219.149,152.025 219,158.5C 218.056,151.25 218.556,144.25 220.5,137.5 Z"/></g>
<g><path style="opacity:1" fill="#212121" d="M 352.5,153.5 C 357.247,153.136 361.081,154.802 364,158.5C 364.514,162.62 362.68,164.12 358.5,163C 355.02,160.703 353.02,157.536 352.5,153.5 Z"/></g>
<g><path style="opacity:1" fill="#626262" d="M 291.5,144.5 C 292.718,149.712 292.551,155.046 291,160.5C 290.501,156.179 290.334,151.846 290.5,147.5C 291.404,146.791 291.737,145.791 291.5,144.5 Z"/></g>
<g><path style="opacity:1" fill="#6b6b6b" d="M 369.5,167.5 C 369.167,167.5 368.833,167.5 368.5,167.5C 369.438,162.873 370.271,158.206 371,153.5C 371.767,158.426 371.267,163.092 369.5,167.5 Z"/></g>
<g><path style="opacity:1" fill="#151515" d="M 124.5,183.5 C 125.764,189.202 124.264,189.869 120,185.5C 117.626,181.106 116.959,176.44 118,171.5C 118.196,169.714 119.029,168.381 120.5,167.5C 128.077,172.524 130.244,179.19 127,187.5C 126.392,185.934 125.558,184.6 124.5,183.5 Z"/></g>
<g><path style="opacity:1" fill="#848484" d="M 130.5,168.5 C 130.167,168.5 129.833,168.5 129.5,168.5C 127.792,163.628 127.292,158.628 128,153.5C 128.836,158.513 129.669,163.513 130.5,168.5 Z"/></g>
<g><path style="opacity:1" fill="#131313" d="M 374.5,183.5 C 373.442,184.6 372.608,185.934 372,187.5C 369.17,179.137 371.503,172.47 379,167.5C 382.845,174.895 382.012,181.728 376.5,188C 375.365,188.749 374.365,188.583 373.5,187.5C 374.246,186.264 374.579,184.93 374.5,183.5 Z"/></g>
<g><path style="opacity:1" fill="#1d1d1d" d="M 137.5,168.5 C 138.833,168.5 140.167,168.5 141.5,168.5C 140.874,174.093 138.041,178.093 133,180.5C 132.055,180.095 131.388,179.428 131,178.5C 130.667,178.833 130.333,179.167 130,179.5C 129.333,177.833 129.333,176.167 130,174.5C 132.114,171.879 134.614,169.879 137.5,168.5 Z"/></g>
<g><path style="opacity:1" fill="#1c1c1c" d="M 357.5,168.5 C 362.212,168.773 366.045,170.773 369,174.5C 369.5,178.667 367.667,180.5 363.5,180C 360.306,176.779 358.306,172.946 357.5,168.5 Z"/></g>
<g><path style="opacity:1" fill="#929292" d="M 374.5,183.5 C 374.687,181.436 375.187,179.436 376,177.5C 376.738,179.881 376.238,181.881 374.5,183.5 Z"/></g>
<g><path style="opacity:1" fill="#707070" d="M 124.5,183.5 C 122.559,181.989 122.059,179.989 123,177.5C 123.813,179.436 124.313,181.436 124.5,183.5 Z"/></g>
<g><path style="opacity:1" fill="#212121" d="M 134.5,185.5 C 135.978,185.238 137.311,185.571 138.5,186.5C 137.699,190.745 136.032,194.579 133.5,198C 128.183,200.288 126.017,198.454 127,192.5C 129.015,189.588 131.515,187.255 134.5,185.5 Z"/></g>
<g><path style="opacity:1" fill="#232323" d="M 360.5,185.5 C 366.723,185.605 370.723,188.605 372.5,194.5C 371.029,200.375 368.195,201.042 364,196.5C 362.368,192.968 361.201,189.301 360.5,185.5 Z"/></g>
<g><path style="opacity:1" fill="#161616" d="M 124.5,206.5 C 120.747,209.488 117.914,208.488 116,203.5C 113.472,198.154 113.305,192.821 115.5,187.5C 123.734,191.222 127.567,197.555 127,206.5C 126.23,207.598 125.397,207.598 124.5,206.5 Z"/></g>
<g><path style="opacity:1" fill="#181818" d="M 374.5,206.5 C 373.883,206.611 373.383,206.944 373,207.5C 370.914,203.333 371.247,199.333 374,195.5C 375.833,192.333 378.333,189.833 381.5,188C 382.5,187.333 383.5,187.333 384.5,188C 386.079,194.104 385.246,199.937 382,205.5C 379.581,208.833 377.081,209.167 374.5,206.5 Z"/></g>
<g><path style="opacity:1" fill="#aeaeae" d="M 124.5,206.5 C 122.584,205.335 121.751,203.668 122,201.5C 123.372,202.91 124.205,204.577 124.5,206.5 Z"/></g>
<g><path style="opacity:1" fill="#adadad" d="M 374.5,206.5 C 374.795,204.577 375.628,202.91 377,201.5C 377.249,203.668 376.416,205.335 374.5,206.5 Z"/></g>
<g><path style="opacity:1" fill="#0a0a0a" d="M 132.5,218.5 C 131.624,218.631 130.957,218.298 130.5,217.5C 132.619,213.95 134.119,210.283 135,206.5C 132.344,210.144 130.511,214.144 129.5,218.5C 126.368,213.344 127.368,208.844 132.5,205C 134.025,203.991 135.692,203.491 137.5,203.5C 137.766,207.605 137.266,211.605 136,215.5C 134.961,216.71 133.794,217.71 132.5,218.5 Z"/></g>
<g><path style="opacity:1" fill="#090909" d="M 369.5,218.5 C 368.824,214.813 367.324,211.48 365,208.5C 365.543,211.612 366.71,214.612 368.5,217.5C 368.043,218.298 367.376,218.631 366.5,218.5C 365.206,217.71 364.039,216.71 363,215.5C 361.734,211.605 361.234,207.605 361.5,203.5C 370.364,205.567 373.03,210.567 369.5,218.5 Z"/></g>
<g><path style="opacity:1" fill="#0e0e0e" d="M 127.5,228.5 C 127.03,229.693 126.03,230.36 124.5,230.5C 118.49,228.879 114.99,224.879 114,218.5C 113.333,215.167 113.333,211.833 114,208.5C 122.306,211.137 127.472,216.637 129.5,225C 129.392,226.681 128.725,227.848 127.5,228.5 Z"/></g>
<g><path style="opacity:1" fill="#797979" d="M 369.5,218.5 C 368.5,219.833 367.5,219.833 366.5,218.5C 367.376,218.631 368.043,218.298 368.5,217.5C 366.71,214.612 365.543,211.612 365,208.5C 367.324,211.48 368.824,214.813 369.5,218.5 Z"/></g>
<g><path style="opacity:1" fill="#0f0f0f" d="M 383.5,208.5 C 386.928,216.939 384.928,224.106 377.5,230C 372.927,231.263 370.26,229.597 369.5,225C 371.459,217.208 376.125,211.708 383.5,208.5 Z"/></g>
<g><path style="opacity:1" fill="#797979" d="M 132.5,218.5 C 131.5,219.833 130.5,219.833 129.5,218.5C 130.511,214.144 132.344,210.144 135,206.5C 134.119,210.283 132.619,213.95 130.5,217.5C 130.957,218.298 131.624,218.631 132.5,218.5 Z"/></g>
<g><path style="opacity:1" fill="#818181" d="M 119.5,218.5 C 117.915,217.998 117.415,216.998 118,215.5C 119.039,216.244 119.539,217.244 119.5,218.5 Z"/></g>
<g><path style="opacity:1" fill="#878787" d="M 379.5,218.5 C 379.461,217.244 379.961,216.244 381,215.5C 381.585,216.998 381.085,217.998 379.5,218.5 Z"/></g>
<g><path style="opacity:1" fill="#a9a9a9" d="M 119.5,218.5 C 121.262,219.262 122.262,220.596 122.5,222.5C 120.738,221.738 119.738,220.404 119.5,218.5 Z"/></g>
<g><path style="opacity:1" fill="#adadad" d="M 379.5,218.5 C 379.262,220.404 378.262,221.738 376.5,222.5C 376.738,220.596 377.738,219.262 379.5,218.5 Z"/></g>
<g><path style="opacity:1" fill="#161616" d="M 135.5,239.5 C 136.338,235.501 136.838,231.501 137,227.5C 135.798,230.774 134.798,234.107 134,237.5C 133.23,238.598 132.397,238.598 131.5,237.5C 130.027,230.256 132.694,224.923 139.5,221.5C 142.166,226.874 141.999,232.208 139,237.5C 138.184,238.823 137.017,239.489 135.5,239.5 Z"/></g>
<g><path style="opacity:1" fill="#171717" d="M 366.5,238.5 C 365.883,238.389 365.383,238.056 365,237.5C 364.202,234.107 363.202,230.774 362,227.5C 362.162,231.501 362.662,235.501 363.5,239.5C 360.548,238.641 358.715,236.641 358,233.5C 356.893,218.593 360.226,217.593 368,230.5C 368.718,233.407 368.218,236.074 366.5,238.5 Z"/></g>
<g><path style="opacity:1" fill="#adadad" d="M 122.5,222.5 C 124.914,223.911 126.581,225.911 127.5,228.5C 125.086,227.089 123.419,225.089 122.5,222.5 Z"/></g>
<g><path style="opacity:1" fill="#aeaeae" d="M 376.5,222.5 C 375.969,224.544 374.802,226.211 373,227.5C 373.077,225.228 374.243,223.562 376.5,222.5 Z"/></g>
<g><path style="opacity:1" fill="#848484" d="M 366.5,238.5 C 366.5,238.833 366.5,239.167 366.5,239.5C 365.5,239.5 364.5,239.5 363.5,239.5C 362.662,235.501 362.162,231.501 362,227.5C 363.202,230.774 364.202,234.107 365,237.5C 365.383,238.056 365.883,238.389 366.5,238.5 Z"/></g>
<g><path style="opacity:1" fill="#0f0f0f" d="M 131.5,238.5 C 131.833,239.5 132.5,240.167 133.5,240.5C 134.441,242.05 135.107,243.716 135.5,245.5C 135.657,246.873 135.49,248.207 135,249.5C 134.329,248.748 133.496,248.414 132.5,248.5C 133.167,249.5 133.833,250.5 134.5,251.5C 127.5,253.758 122.333,251.424 119,244.5C 116.276,240.436 115.442,236.103 116.5,231.5C 122.18,232.508 127.18,234.842 131.5,238.5 Z"/></g>
<g><path style="opacity:1" fill="#0d0d0d" d="M 365.5,249.5 C 362.928,246.167 363.261,242.833 366.5,239.5C 371.251,234.959 376.917,232.292 383.5,231.5C 383.354,240.296 379.687,247.129 372.5,252C 369.773,252.818 367.106,252.652 364.5,251.5C 364.863,250.817 365.196,250.15 365.5,249.5 Z"/></g>
<g><path style="opacity:1" fill="#797979" d="M 135.5,239.5 C 134.508,239.328 133.842,239.662 133.5,240.5C 132.5,240.167 131.833,239.5 131.5,238.5C 131.5,238.167 131.5,237.833 131.5,237.5C 132.397,238.598 133.23,238.598 134,237.5C 134.798,234.107 135.798,230.774 137,227.5C 136.838,231.501 136.338,235.501 135.5,239.5 Z"/></g>
<g><path style="opacity:1" fill="#141414" d="M 145.5,259.5 C 144.676,255.688 144.176,251.688 144,247.5C 143.827,251.541 143.327,255.541 142.5,259.5C 140.784,258.451 139.451,257.118 138.5,255.5C 137.87,249.094 140.204,244.094 145.5,240.5C 149.014,244.935 150.181,249.935 149,255.5C 148.34,257.324 147.173,258.657 145.5,259.5 Z"/></g>
<g><path style="opacity:1" fill="#141414" d="M 359.5,257.5 C 358.518,258.141 357.518,258.807 356.5,259.5C 355.675,255.878 355.175,252.211 355,248.5C 354.823,252.356 354.323,256.023 353.5,259.5C 350.746,257.829 349.413,255.329 349.5,252C 349.689,247.733 351.022,243.9 353.5,240.5C 359.759,244.682 361.759,250.348 359.5,257.5 Z"/></g>
<g><path style="opacity:1" fill="#616161" d="M 371.5,244.5 C 373.795,241.703 376.295,239.036 379,236.5C 377.804,240.202 375.304,242.869 371.5,244.5 Z"/></g>
<g><path style="opacity:1" fill="#aeaeae" d="M 132.5,248.5 C 129.07,246.896 126.57,244.563 125,241.5C 127.998,243.333 130.498,245.666 132.5,248.5 Z"/></g>
<g><path style="opacity:1" fill="#b7b7b7" d="M 371.5,244.5 C 370.089,246.914 368.089,248.581 365.5,249.5C 366.911,247.086 368.911,245.419 371.5,244.5 Z"/></g>
<g><path style="opacity:1" fill="#959595" d="M 135.5,245.5 C 136.139,246.097 136.472,246.93 136.5,248C 136.613,249.699 135.947,250.866 134.5,251.5C 133.833,250.5 133.167,249.5 132.5,248.5C 133.496,248.414 134.329,248.748 135,249.5C 135.49,248.207 135.657,246.873 135.5,245.5 Z"/></g>
<g><path style="opacity:1" fill="#0d0d0d" d="M 136.5,257.5 C 138.463,258.82 140.463,260.154 142.5,261.5C 145.472,263.778 147.139,266.778 147.5,270.5C 140.733,267.783 134.4,264.617 128.5,261C 134.056,265.607 140.056,269.44 146.5,272.5C 142.488,276.304 138.155,276.471 133.5,273C 131,270.5 128.5,268 126,265.5C 123.965,262.439 122.799,259.105 122.5,255.5C 127.227,255.779 131.893,256.446 136.5,257.5 Z"/></g>
<g><path style="opacity:1" fill="#959595" d="M 359.5,257.5 C 359.5,258.167 359.833,258.5 360.5,258.5C 359.205,259.488 357.872,260.488 356.5,261.5C 355.5,260.833 354.5,260.167 353.5,259.5C 354.323,256.023 354.823,252.356 355,248.5C 355.175,252.211 355.675,255.878 356.5,259.5C 357.518,258.807 358.518,258.141 359.5,257.5 Z"/></g>
<g><path style="opacity:1" fill="#101010" d="M 366.5,263.5 C 361.886,265.807 357.22,268.14 352.5,270.5C 351.817,266.781 353.151,263.781 356.5,261.5C 357.872,260.488 359.205,259.488 360.5,258.5C 365.525,256.05 370.858,255.05 376.5,255.5C 376.201,259.105 375.035,262.439 373,265.5C 369.347,270.671 364.513,274.004 358.5,275.5C 355.927,275.547 353.927,274.547 352.5,272.5C 357.571,269.974 362.238,266.974 366.5,263.5 Z"/></g>
<g><path style="opacity:1" fill="#a0a0a0" d="M 145.5,259.5 C 144.5,260.167 143.5,260.833 142.5,261.5C 140.463,260.154 138.463,258.82 136.5,257.5C 137.833,257.5 138.5,256.833 138.5,255.5C 139.451,257.118 140.784,258.451 142.5,259.5C 143.327,255.541 143.827,251.541 144,247.5C 144.176,251.688 144.676,255.688 145.5,259.5 Z"/></g>
<g><path style="opacity:1" fill="#0c0c0c" d="M 159.5,278.5 C 158.883,278.389 158.383,278.056 158,277.5C 157.24,273.181 156.573,268.848 156,264.5C 155.336,268.696 155.503,272.862 156.5,277C 156.316,278.376 155.649,279.209 154.5,279.5C 148.995,272.33 149.328,265.33 155.5,258.5C 161.551,264.389 162.884,271.056 159.5,278.5 Z"/></g>
<g><path style="opacity:1" fill="#101010" d="M 344.5,279.5 C 343.351,279.209 342.684,278.376 342.5,277C 343.426,273.861 343.592,270.694 343,267.5C 341.844,271.418 341.344,275.418 341.5,279.5C 340.504,279.586 339.671,279.252 339,278.5C 336.001,270.806 337.501,264.139 343.5,258.5C 349.73,265.3 350.063,272.3 344.5,279.5 Z"/></g>
<g><path style="opacity:1" fill="#8e8e8e" d="M 366.5,263.5 C 367.002,261.915 368.002,261.415 369.5,262C 368.756,263.039 367.756,263.539 366.5,263.5 Z"/></g>
<g><path style="opacity:1" fill="#b6b6b6" d="M 147.5,270.5 C 147.672,271.492 147.338,272.158 146.5,272.5C 140.056,269.44 134.056,265.607 128.5,261C 134.4,264.617 140.733,267.783 147.5,270.5 Z"/></g>
<g><path style="opacity:1" fill="#939393" d="M 159.5,278.5 C 158.833,279.5 158.167,280.5 157.5,281.5C 156.005,281.011 154.671,280.345 153.5,279.5C 153.833,279.5 154.167,279.5 154.5,279.5C 155.649,279.209 156.316,278.376 156.5,277C 155.503,272.862 155.336,268.696 156,264.5C 156.573,268.848 157.24,273.181 158,277.5C 158.383,278.056 158.883,278.389 159.5,278.5 Z"/></g>
<g><path style="opacity:1" fill="#aeaeae" d="M 344.5,279.5 C 343.71,280.401 342.71,281.068 341.5,281.5C 341.5,280.833 341.5,280.167 341.5,279.5C 341.344,275.418 341.844,271.418 343,267.5C 343.592,270.694 343.426,273.861 342.5,277C 342.684,278.376 343.351,279.209 344.5,279.5 Z"/></g>
<g><path style="opacity:1" fill="#0f0f0f" d="M 176.5,296.5 C 174.778,290.832 172.944,285.165 171,279.5C 171.357,285.081 172.857,290.414 175.5,295.5C 174.675,296.386 173.675,296.719 172.5,296.5C 165.522,290.343 164.689,283.343 170,275.5C 177.066,279.964 180.066,286.297 179,294.5C 178.583,295.756 177.75,296.423 176.5,296.5 Z"/></g>
<g><path style="opacity:1" fill="#0e0e0e" d="M 326.5,296.5 C 325.325,296.719 324.325,296.386 323.5,295.5C 326.143,290.414 327.643,285.081 328,279.5C 326.056,285.165 324.222,290.832 322.5,296.5C 321.25,296.423 320.417,295.756 320,294.5C 319.333,291.833 319.333,289.167 320,286.5C 322.243,282.252 325.243,278.586 329,275.5C 334.375,283.363 333.541,290.363 326.5,296.5 Z"/></g>
<g><path style="opacity:1" fill="#0b0b0b" d="M 153.5,279.5 C 154.671,280.345 156.005,281.011 157.5,281.5C 160.243,283.239 162.243,285.573 163.5,288.5C 163.083,289.124 162.416,289.457 161.5,289.5C 155.848,287.672 150.182,286.005 144.5,284.5C 150.529,287.922 156.862,290.589 163.5,292.5C 157.851,297.535 151.851,297.702 145.5,293C 129.251,279.019 131.917,274.519 153.5,279.5 Z"/></g>
<g><path style="opacity:1" fill="#0c0c0c" d="M 335.5,291.5 C 342.425,290.527 348.758,288.194 354.5,284.5C 348.217,286.372 341.884,288.039 335.5,289.5C 336.313,286.011 338.313,283.344 341.5,281.5C 342.71,281.068 343.71,280.401 344.5,279.5C 350.797,278.461 357.13,278.294 363.5,279C 363.957,279.414 364.291,279.914 364.5,280.5C 359.31,290.877 350.977,296.044 339.5,296C 337.616,294.951 336.282,293.451 335.5,291.5 Z"/></g>
<g><path style="opacity:1" fill="#828282" d="M 144.5,284.5 C 142.897,284.688 141.563,284.188 140.5,283C 142.14,282.652 143.473,283.152 144.5,284.5 Z"/></g>
<g><path style="opacity:1" fill="#8c8c8c" d="M 354.5,284.5 C 355.527,283.152 356.86,282.652 358.5,283C 357.437,284.188 356.103,284.688 354.5,284.5 Z"/></g>
<g><path style="opacity:1" fill="#818181" d="M 326.5,296.5 C 329.5,297.167 332.5,297.833 335.5,298.5C 332.167,298.5 328.833,298.5 325.5,298.5C 324.5,297.833 323.5,297.167 322.5,296.5C 324.222,290.832 326.056,285.165 328,279.5C 327.643,285.081 326.143,290.414 323.5,295.5C 324.325,296.386 325.325,296.719 326.5,296.5 Z"/></g>
<g><path style="opacity:1" fill="#adadad" d="M 354.5,284.5 C 348.758,288.194 342.425,290.527 335.5,291.5C 335.5,290.833 335.5,290.167 335.5,289.5C 341.884,288.039 348.217,286.372 354.5,284.5 Z"/></g>
<g><path style="opacity:1" fill="#b7b7b7" d="M 144.5,284.5 C 150.182,286.005 155.848,287.672 161.5,289.5C 162.416,289.457 163.083,289.124 163.5,288.5C 164.833,289.833 164.833,291.167 163.5,292.5C 156.862,290.589 150.529,287.922 144.5,284.5 Z"/></g>
<g><path style="opacity:1" fill="#0f0f0f" d="M 202.5,308.5 C 201.883,308.611 201.383,308.944 201,309.5C 199.951,307.382 198.451,305.716 196.5,304.5C 197.242,306.426 198.242,308.259 199.5,310C 198.207,310.49 196.873,310.657 195.5,310.5C 192.551,309.386 190.385,307.386 189,304.5C 187.775,299.915 187.275,295.248 187.5,290.5C 193.158,291.641 197.658,294.641 201,299.5C 202.289,302.351 202.789,305.351 202.5,308.5 Z"/></g>
<g><path style="opacity:1" fill="#0d0d0d" d="M 300.5,307.5 C 299.542,307.953 298.708,308.619 298,309.5C 296.46,307.045 296.126,304.379 297,301.5C 309.767,285.221 313.767,286.888 309,306.5C 306.298,309.951 303.131,311.118 299.5,310C 300.252,309.329 300.586,308.496 300.5,307.5 Z"/></g>
<g><path style="opacity:1" fill="#878787" d="M 176.5,296.5 C 175.5,297.167 174.5,297.833 173.5,298.5C 169.833,298.5 166.167,298.5 162.5,298.5C 165.833,297.833 169.167,297.167 172.5,296.5C 173.675,296.719 174.675,296.386 175.5,295.5C 172.857,290.414 171.357,285.081 171,279.5C 172.944,285.165 174.778,290.832 176.5,296.5 Z"/></g>
<g><path style="opacity:1" fill="#848484" d="M 191.5,296.5 C 193.085,297.002 193.585,298.002 193,299.5C 191.961,298.756 191.461,297.756 191.5,296.5 Z"/></g>
<g><path style="opacity:1" fill="#868686" d="M 304.5,301.5 C 304.795,299.577 305.628,297.91 307,296.5C 307.249,298.668 306.416,300.335 304.5,301.5 Z"/></g>
<g><path style="opacity:1" fill="#070707" d="M 162.5,298.5 C 166.167,298.5 169.833,298.5 173.5,298.5C 178.954,298.725 182.954,301.225 185.5,306C 183.19,306.497 180.857,306.663 178.5,306.5C 171.651,305.252 164.651,304.419 157.5,304C 163.714,305.876 170.048,307.043 176.5,307.5C 179.572,307.183 182.572,307.516 185.5,308.5C 184.699,311.133 183.033,312.967 180.5,314C 169.026,315.431 159.693,311.598 152.5,302.5C 155.335,300.088 158.669,298.754 162.5,298.5 Z"/></g>
<g><path style="opacity:1" fill="#060606" d="M 325.5,298.5 C 328.833,298.5 332.167,298.5 335.5,298.5C 339.673,299.044 343.673,300.21 347.5,302C 339.366,312.249 329.032,315.915 316.5,313C 315.128,311.758 314.128,310.258 313.5,308.5C 316.428,307.516 319.428,307.183 322.5,307.5C 328.952,307.043 335.286,305.876 341.5,304C 334.327,304.241 327.327,305.075 320.5,306.5C 318.143,306.663 315.81,306.497 313.5,306C 316.064,301.217 320.064,298.717 325.5,298.5 Z"/></g>
<g><path style="opacity:1" fill="#0d0d0d" d="M 230.5,316.5 C 225.819,314.333 221.819,311.167 218.5,307C 217.833,306.333 217.167,306.333 216.5,307C 220.395,311.065 224.395,314.898 228.5,318.5C 223.758,320.377 219.591,319.377 216,315.5C 212.743,310.997 211.243,305.997 211.5,300.5C 218.49,301.245 224.323,304.245 229,309.5C 230.202,311.677 230.702,314.011 230.5,316.5 Z"/></g>
<g><path style="opacity:1" fill="#111111" d="M 271.5,316.5 C 270.5,316.5 269.5,316.5 268.5,316.5C 268.238,311.524 270.238,307.691 274.5,305C 278.474,302.398 282.807,300.898 287.5,300.5C 288.112,310.69 283.612,317.023 274,319.5C 271.123,319.563 270.289,318.563 271.5,316.5 Z"/></g>
<g><path style="opacity:1" fill="#b1b1b1" d="M 196.5,304.5 C 194.915,303.998 194.415,302.998 195,301.5C 196.039,302.244 196.539,303.244 196.5,304.5 Z"/></g>
<g><path style="opacity:1" fill="#b1b1b1" d="M 304.5,301.5 C 304.573,303.027 303.906,304.027 302.5,304.5C 302.427,302.973 303.094,301.973 304.5,301.5 Z"/></g>
<g><path style="opacity:1" fill="#a3a3a3" d="M 178.5,306.5 C 177.508,306.328 176.842,306.662 176.5,307.5C 170.048,307.043 163.714,305.876 157.5,304C 164.651,304.419 171.651,305.252 178.5,306.5 Z"/></g>
<g><path style="opacity:1" fill="#b4b4b4" d="M 302.5,304.5 C 302.573,306.027 301.906,307.027 300.5,307.5C 300.427,305.973 301.094,304.973 302.5,304.5 Z"/></g>
<g><path style="opacity:1" fill="#a0a0a0" d="M 322.5,307.5 C 322.158,306.662 321.492,306.328 320.5,306.5C 327.327,305.075 334.327,304.241 341.5,304C 335.286,305.876 328.952,307.043 322.5,307.5 Z"/></g>
<g><path style="opacity:1" fill="#a7a7a7" d="M 196.5,304.5 C 198.451,305.716 199.951,307.382 201,309.5C 201.383,308.944 201.883,308.611 202.5,308.5C 202.423,309.75 201.756,310.583 200.5,311C 201.416,311.278 202.082,311.778 202.5,312.5C 201.167,312.5 199.833,312.5 198.5,312.5C 197.5,311.833 196.5,311.167 195.5,310.5C 196.873,310.657 198.207,310.49 199.5,310C 198.242,308.259 197.242,306.426 196.5,304.5 Z"/></g>
<g><path style="opacity:1" fill="#080808" d="M 198.5,312.5 C 199.833,312.5 201.167,312.5 202.5,312.5C 206.256,312.876 209.256,314.543 211.5,317.5C 211.043,318.298 210.376,318.631 209.5,318.5C 201.184,319.702 192.851,320.869 184.5,322C 193.465,322.91 202.132,322.077 210.5,319.5C 212.847,321.03 213.014,323.03 211,325.5C 209.2,327.317 207.034,328.484 204.5,329C 193.875,331.066 184.542,328.566 176.5,321.5C 182.851,316.159 190.184,313.159 198.5,312.5 Z"/></g>
<g><path style="opacity:1" fill="#a2a2a2" d="M 230.5,316.5 C 230.167,317.5 229.5,318.167 228.5,318.5C 224.395,314.898 220.395,311.065 216.5,307C 217.167,306.333 217.833,306.333 218.5,307C 221.819,311.167 225.819,314.333 230.5,316.5 Z"/></g>
<g><path style="opacity:1" fill="#090909" d="M 288.5,319.5 C 296.176,322.172 304.176,323.005 312.5,322C 304.768,321.095 297.101,319.928 289.5,318.5C 287.972,318.483 287.472,317.816 288,316.5C 292.785,312.627 298.285,311.46 304.5,313C 309.828,314.163 314.828,316.163 319.5,319C 321.255,319.72 322.089,320.887 322,322.5C 313.394,328.591 303.894,330.757 293.5,329C 289.597,327.931 287.263,325.431 286.5,321.5C 286.747,320.287 287.414,319.62 288.5,319.5 Z"/></g>
<g><path style="opacity:1" fill="#afafaf" d="M 271.5,316.5 C 273.202,313.605 275.536,311.772 278.5,311C 276.559,313.454 274.225,315.287 271.5,316.5 Z"/></g>
<g><path style="opacity:1" fill="#0c0c0c" d="M 225.5,331.5 C 231.898,330.305 237.898,327.972 243.5,324.5C 245.176,330.319 243.176,334.485 237.5,337C 227.316,340.654 217.316,340.32 207.5,336C 214.061,327.218 222.728,321.718 233.5,319.5C 237.193,319.753 240.526,320.92 243.5,323C 237.288,325.608 231.288,328.442 225.5,331.5 Z"/></g>
<g><path style="opacity:1" fill="#0a0a0a" d="M 256.5,324.5 C 264.687,329.925 273.687,333.091 283.5,334C 274.117,331.374 265.117,327.874 256.5,323.5C 255.262,323.19 255.262,322.69 256.5,322C 263.261,318.785 269.928,319.118 276.5,323C 282.515,326.172 287.515,330.506 291.5,336C 280.793,340.588 270.126,340.588 259.5,336C 256.41,333.984 254.743,331.151 254.5,327.5C 254.64,325.97 255.307,324.97 256.5,324.5 Z"/></g>
<g><path style="opacity:1" fill="#a3a3a3" d="M 209.5,318.5 C 209.5,319.167 209.833,319.5 210.5,319.5C 202.132,322.077 193.465,322.91 184.5,322C 192.851,320.869 201.184,319.702 209.5,318.5 Z"/></g>
<g><path style="opacity:1" fill="#b5b5b5" d="M 289.5,318.5 C 297.101,319.928 304.768,321.095 312.5,322C 304.176,323.005 296.176,322.172 288.5,319.5C 289.167,319.5 289.5,319.167 289.5,318.5 Z"/></g>
<g><path style="opacity:1" fill="#c7c7c7" d="M 256.5,323.5 C 265.117,327.874 274.117,331.374 283.5,334C 273.687,333.091 264.687,329.925 256.5,324.5C 256.5,324.167 256.5,323.833 256.5,323.5 Z"/></g>
<g><path style="opacity:1" fill="#131313" d="M 117.5,334.5 C 117.179,336.048 116.179,336.715 114.5,336.5C 114.5,337.5 114.5,338.5 114.5,339.5C 115.833,339.5 117.167,339.5 118.5,339.5C 116.721,341.344 114.388,342.01 111.5,341.5C 111.5,337.833 111.5,334.167 111.5,330.5C 113.924,330.192 116.257,330.526 118.5,331.5C 117.167,332.167 115.833,332.833 114.5,333.5C 115.325,334.386 116.325,334.719 117.5,334.5 Z"/></g>
<g><path style="opacity:1" fill="#040404" d="M 133.5,330.5 C 136.247,330.187 138.914,330.52 141.5,331.5C 139.711,334.556 139.044,337.889 139.5,341.5C 138.5,341.5 137.5,341.5 136.5,341.5C 136.5,338.5 136.5,335.5 136.5,332.5C 134.821,332.715 133.821,332.048 133.5,330.5 Z"/></g>
<g><path style="opacity:1" fill="#080808" d="M 146.5,330.5 C 154.549,329.372 157.216,332.539 154.5,340C 151.937,341.079 149.271,341.579 146.5,341.5C 146.5,337.833 146.5,334.167 146.5,330.5 Z"/></g>
<g><path style="opacity:1" fill="#232323" d="M 124.5,330.5 C 126.167,330.5 127.833,330.5 129.5,330.5C 129.649,331.552 129.483,332.552 129,333.5C 127.817,332.269 126.651,332.269 125.5,333.5C 132.599,338.535 131.599,341.202 122.5,341.5C 122.5,340.5 122.5,339.5 122.5,338.5C 128.925,338.783 129.091,337.783 123,335.5C 122.387,333.505 122.887,331.838 124.5,330.5 Z"/></g>
<g><path style="opacity:1" fill="#191919" d="M 356.5,330.5 C 361.989,330.504 363.822,333.171 362,338.5C 360.174,342.037 357.84,342.371 355,339.5C 354.068,336.177 354.568,333.177 356.5,330.5 Z"/></g>
<g><path style="opacity:1" fill="#191919" d="M 367.5,330.5 C 374.087,331.011 375.087,333.677 370.5,338.5C 371.5,339.167 372.5,339.833 373.5,340.5C 371.257,341.474 368.924,341.808 366.5,341.5C 366.933,338.715 368.266,336.381 370.5,334.5C 369.167,333.833 367.833,333.167 366.5,332.5C 366.863,331.817 367.196,331.15 367.5,330.5 Z"/></g>
<g><path style="opacity:1" fill="#949494" d="M 225.5,331.5 C 222.544,333.572 219.21,334.406 215.5,334C 218.72,332.648 222.053,331.814 225.5,331.5 Z"/></g>
<g><path style="opacity:1" fill="#dbdbdb" d="M 149.5,332.5 C 154.289,334.2 154.622,336.533 150.5,339.5C 149.526,337.257 149.192,334.924 149.5,332.5 Z"/></g>
<g><path style="opacity:1" fill="#f6f6f6" d="M 357.5,333.5 C 358.649,333.791 359.316,334.624 359.5,336C 359.167,336.833 358.833,337.667 358.5,338.5C 357.548,336.955 357.215,335.288 357.5,333.5 Z"/></g>
<g><path style="opacity:1" fill="#1d1d1d" d="M 378.5,330.5 C 381.38,330.033 383.713,330.866 385.5,333C 385.242,335.494 384.909,337.994 384.5,340.5C 382.484,341.706 380.484,341.706 378.5,340.5C 379.689,339.571 381.022,339.238 382.5,339.5C 382.5,338.5 382.5,337.5 382.5,336.5C 378.544,335.947 378.544,335.114 382.5,334C 381.207,333.51 379.873,333.343 378.5,333.5C 378.5,332.5 378.5,331.5 378.5,330.5 Z"/></g>
<g><path style="opacity:1" fill="#0c0c0c" d="M 344.5,330.5 C 351.513,331.542 352.18,334.209 346.5,338.5C 347.833,339.167 349.167,339.833 350.5,340.5C 347.833,341.833 345.167,341.833 342.5,340.5C 344.167,338.5 345.833,336.5 347.5,334.5C 346.167,333.833 344.833,333.167 343.5,332.5C 343.863,331.817 344.196,331.15 344.5,330.5 Z"/></g>
<g><path style="opacity:1" fill="#919191" d="M 117.5,334.5 C 118.404,335.209 118.737,336.209 118.5,337.5C 117.448,337.351 116.448,337.517 115.5,338C 116.737,338.232 117.737,338.732 118.5,339.5C 117.167,339.5 115.833,339.5 114.5,339.5C 114.5,338.5 114.5,337.5 114.5,336.5C 116.179,336.715 117.179,336.048 117.5,334.5 Z"/></g>
<g><path style="opacity:1" fill="#090909" d="M 148.5,358.5 C 153.628,358.112 158.628,358.612 163.5,360C 162.793,362.52 161.96,365.02 161,367.5C 150.81,364.356 147.143,368.023 150,378.5C 150.465,379.931 151.299,381.097 152.5,382C 155.817,382.498 159.15,382.665 162.5,382.5C 162.768,385.119 162.435,387.619 161.5,390C 141.678,391.886 135.178,383.386 142,364.5C 144.063,362.266 146.229,360.266 148.5,358.5 Z"/></g>
<g><path style="opacity:1" fill="#000000" d="M 167.5,358.5 C 170.5,358.5 173.5,358.5 176.5,358.5C 176.5,362.5 176.5,366.5 176.5,370.5C 179.833,370.5 183.167,370.5 186.5,370.5C 186.5,366.5 186.5,362.5 186.5,358.5C 189.5,358.5 192.5,358.5 195.5,358.5C 195.5,369.167 195.5,379.833 195.5,390.5C 192.5,390.5 189.5,390.5 186.5,390.5C 186.5,386.5 186.5,382.5 186.5,378.5C 183.167,378.5 179.833,378.5 176.5,378.5C 176.5,382.5 176.5,386.5 176.5,390.5C 173.5,390.5 170.5,390.5 167.5,390.5C 167.5,379.833 167.5,369.167 167.5,358.5 Z"/></g>
<g><path style="opacity:1" fill="#060606" d="M 208.5,358.5 C 212.5,358.5 216.5,358.5 220.5,358.5C 223.294,369.136 225.961,379.803 228.5,390.5C 225.5,390.5 222.5,390.5 219.5,390.5C 219.643,388.738 219.309,387.071 218.5,385.5C 215.232,384.513 211.898,384.18 208.5,384.5C 208.5,386.5 208.5,388.5 208.5,390.5C 205.5,390.5 202.5,390.5 199.5,390.5C 202.092,379.724 205.092,369.057 208.5,358.5 Z"/></g>
<g><path style="opacity:1" fill="#0c0c0c" d="M 232.5,358.5 C 238.509,358.334 244.509,358.501 250.5,359C 257.588,360.42 260.088,364.587 258,371.5C 257.218,374.076 255.718,376.076 253.5,377.5C 255.584,381.336 257.917,385.003 260.5,388.5C 252.444,392.681 247.61,390.348 246,381.5C 244.989,380.663 243.822,380.33 242.5,380.5C 242.5,383.833 242.5,387.167 242.5,390.5C 239.167,390.5 235.833,390.5 232.5,390.5C 232.5,379.833 232.5,369.167 232.5,358.5 Z"/></g>
<g><path style="opacity:1" fill="#050505" d="M 264.5,358.5 C 267.5,358.5 270.5,358.5 273.5,358.5C 273.5,369.167 273.5,379.833 273.5,390.5C 270.5,390.5 267.5,390.5 264.5,390.5C 264.5,379.833 264.5,369.167 264.5,358.5 Z"/></g>
<g><path style="opacity:1" fill="#090909" d="M 286.5,358.5 C 303.176,356.676 310.009,364.009 307,380.5C 304.756,387.799 299.756,391.132 292,390.5C 284.14,390.903 279.474,387.236 278,379.5C 276.068,370.443 278.901,363.443 286.5,358.5 Z"/></g>
<g><path style="opacity:1" fill="#040404" d="M 333.5,358.5 C 333.5,360.833 333.5,363.167 333.5,365.5C 330.941,365.198 328.607,365.532 326.5,366.5C 326.5,374.5 326.5,382.5 326.5,390.5C 323.5,390.5 320.5,390.5 317.5,390.5C 317.5,382.5 317.5,374.5 317.5,366.5C 314.833,366.5 312.167,366.5 309.5,366.5C 309.5,363.833 309.5,361.167 309.5,358.5C 317.5,358.5 325.5,358.5 333.5,358.5 Z"/></g>
<g><path style="opacity:1" fill="#080808" d="M 343.5,358.5 C 348.547,358.337 353.547,358.671 358.5,359.5C 358.167,362.167 357.833,364.833 357.5,367.5C 353.899,366.537 350.233,365.87 346.5,365.5C 346.297,367.39 346.963,368.89 348.5,370C 357.621,371.747 360.788,376.914 358,385.5C 356.269,387.617 354.102,389.117 351.5,390C 346.463,390.663 341.463,390.496 336.5,389.5C 336.5,386.5 336.5,383.5 336.5,380.5C 340.613,382.386 344.946,383.386 349.5,383.5C 349.67,382.178 349.337,381.011 348.5,380C 334.734,375.173 333.067,368.007 343.5,358.5 Z"/></g>
<g><path style="opacity:1" fill="#808080" d="M 333.5,358.5 C 334.473,360.948 334.806,363.615 334.5,366.5C 331.833,366.5 329.167,366.5 326.5,366.5C 328.607,365.532 330.941,365.198 333.5,365.5C 333.5,363.167 333.5,360.833 333.5,358.5 Z"/></g>
<g><path style="opacity:1" fill="#f4f4f4" d="M 242.5,365.5 C 248.704,365.314 250.037,367.814 246.5,373C 245.207,373.49 243.873,373.657 242.5,373.5C 242.5,370.833 242.5,368.167 242.5,365.5 Z"/></g>
<g><path style="opacity:1" fill="#f0f0f0" d="M 290.5,365.5 C 293.368,365.085 295.535,366.085 297,368.5C 297.667,372.833 297.667,377.167 297,381.5C 294.821,383.637 292.321,383.971 289.5,382.5C 286.534,376.5 286.867,370.833 290.5,365.5 Z"/></g>
<g><path style="opacity:1" fill="#e1e1e1" d="M 213.5,367.5 C 214.649,367.791 215.316,368.624 215.5,370C 216.159,372.462 216.493,374.962 216.5,377.5C 214.833,377.5 213.167,377.5 211.5,377.5C 211.851,374.097 212.518,370.763 213.5,367.5 Z"/></g>
<g><path style="opacity:1" fill="#0f0f0f" d="M 213.5,404.5 C 216.167,404.5 218.833,404.5 221.5,404.5C 221.5,405.5 221.5,406.5 221.5,407.5C 220.167,407.5 218.833,407.5 217.5,407.5C 217.5,408.5 217.5,409.5 217.5,410.5C 218.833,410.5 220.167,410.5 221.5,410.5C 221.5,411.5 221.5,412.5 221.5,413.5C 220.167,413.5 218.833,413.5 217.5,413.5C 217.5,415.167 217.5,416.833 217.5,418.5C 216.167,418.5 214.833,418.5 213.5,418.5C 213.5,413.833 213.5,409.167 213.5,404.5 Z"/></g>
<g><path style="opacity:1" fill="#0a0a0a" d="M 239.5,404.5 C 240.833,404.5 242.167,404.5 243.5,404.5C 243.5,406.167 243.5,407.833 243.5,409.5C 245.167,409.5 246.833,409.5 248.5,409.5C 248.5,407.833 248.5,406.167 248.5,404.5C 249.5,404.5 250.5,404.5 251.5,404.5C 251.5,409.167 251.5,413.833 251.5,418.5C 250.5,418.5 249.5,418.5 248.5,418.5C 248.5,416.5 248.5,414.5 248.5,412.5C 246.833,412.5 245.167,412.5 243.5,412.5C 243.5,414.5 243.5,416.5 243.5,418.5C 242.167,418.5 240.833,418.5 239.5,418.5C 239.5,413.833 239.5,409.167 239.5,404.5 Z"/></g>
<g><path style="opacity:1" fill="#131313" d="M 280.5,404.5 C 283.93,404.107 287.096,404.773 290,406.5C 291.38,411.291 289.547,413.624 284.5,413.5C 284.5,415.167 284.5,416.833 284.5,418.5C 283.167,418.5 281.833,418.5 280.5,418.5C 280.5,413.833 280.5,409.167 280.5,404.5 Z"/></g>
<g><path style="opacity:1" fill="#080808" d="M 298.5,404.5 C 301.167,404.5 303.833,404.5 306.5,404.5C 306.5,405.5 306.5,406.5 306.5,407.5C 301.167,408.167 301.167,408.833 306.5,409.5C 306.5,410.5 306.5,411.5 306.5,412.5C 305.167,412.5 303.833,412.5 302.5,412.5C 302.5,413.5 302.5,414.5 302.5,415.5C 303.833,415.5 305.167,415.5 306.5,415.5C 306.5,416.5 306.5,417.5 306.5,418.5C 303.833,418.5 301.167,418.5 298.5,418.5C 298.5,413.833 298.5,409.167 298.5,404.5 Z"/></g>
<g><path style="opacity:1" fill="#161616" d="M 195.5,404.5 C 205.373,404.192 208.04,408.359 203.5,417C 194.735,419.908 191.235,416.741 193,407.5C 194.045,406.627 194.878,405.627 195.5,404.5 Z"/></g>
<g><path style="opacity:1" fill="#121212" d="M 262.5,404.5 C 272.373,404.192 275.04,408.359 270.5,417C 261.791,419.966 258.291,416.799 260,407.5C 261.045,406.627 261.878,405.627 262.5,404.5 Z"/></g>
<g><path style="opacity:1" fill="#f4f4f4" d="M 197.5,407.5 C 198.822,407.33 199.989,407.663 201,408.5C 201.667,410.5 201.667,412.5 201,414.5C 199.667,415.833 198.333,415.833 197,414.5C 196.297,412.071 196.463,409.738 197.5,407.5 Z"/></g>
<g><path style="opacity:1" fill="#eaeaea" d="M 264.5,407.5 C 267.352,407.352 269.019,408.686 269.5,411.5C 268.875,414.986 267.042,415.986 264,414.5C 263.297,412.071 263.463,409.738 264.5,407.5 Z"/></g>
<g><path style="opacity:1" fill="#d3d3d3" d="M 284.5,407.5 C 285.5,407.5 286.5,407.5 287.5,407.5C 287.5,408.5 287.5,409.5 287.5,410.5C 286.5,410.5 285.5,410.5 284.5,410.5C 284.5,409.5 284.5,408.5 284.5,407.5 Z"/></g>
</svg>
